<svg width="26" height="26" viewBox="0 0 26 26" fill="none" xmlns="http://www.w3.org/2000/svg">
<path d="M24.3793 15.143C24.4529 15.2166 24.5529 15.258 24.6571 15.258C24.7613 15.258 24.8612 15.2166 24.9349 15.143C25.0085 15.0693 25.0499 14.9694 25.0499 14.8652V13.8469C25.0499 13.7427 25.0085 13.6428 24.9349 13.5691C24.8612 13.4954 24.7613 13.454 24.6571 13.454C24.5529 13.454 24.4529 13.4954 24.3793 13.5691C24.3056 13.6428 24.2642 13.7427 24.2642 13.8469V14.8652C24.2642 14.9694 24.3056 15.0693 24.3793 15.143Z" fill="#2B2A28" stroke="#2B2A28" stroke-width="0.1"/>
<path d="M2.37143 25.05H23.6286C24.0056 25.05 24.3671 24.9002 24.6337 24.6337C24.9002 24.3671 25.05 24.0056 25.05 23.6286V17.2651C25.05 17.161 25.0086 17.061 24.9349 16.9874C24.8613 16.9137 24.7613 16.8723 24.6571 16.8723C24.5529 16.8723 24.453 16.9137 24.3794 16.9874C24.3057 17.061 24.2643 17.161 24.2643 17.2651V23.6286C24.2643 23.7972 24.1973 23.9589 24.0781 24.0781C23.9589 24.1973 23.7972 24.2643 23.6286 24.2643H2.37143C2.20283 24.2643 2.04113 24.1973 1.92191 24.0781C1.80269 23.9589 1.73571 23.7972 1.73571 23.6286V2.37143C1.73571 2.20283 1.80269 2.04113 1.92191 1.92191C2.04113 1.80269 2.20283 1.73571 2.37143 1.73571H23.6286C23.7972 1.73571 23.9589 1.80269 24.0781 1.92191C24.1973 2.04113 24.2643 2.20283 24.2643 2.37143V8.04914C24.2643 8.15333 24.3057 8.25326 24.3794 8.32693C24.453 8.40061 24.553 8.442 24.6571 8.442C24.7613 8.442 24.8613 8.40061 24.9349 8.32694C25.0086 8.25326 25.05 8.15333 25.05 8.04914V2.37143C25.05 1.99444 24.9002 1.6329 24.6337 1.36633C24.3671 1.09976 24.0056 0.95 23.6286 0.95H2.37143C1.99444 0.95 1.6329 1.09976 1.36633 1.36633C1.09976 1.6329 0.95 1.99444 0.95 2.37143V23.6286C0.95 24.0056 1.09976 24.3671 1.36633 24.6337C1.6329 24.9002 1.99444 25.05 2.37143 25.05Z" fill="#2B2A28" stroke="#2B2A28" stroke-width="0.1"/>
<path d="M24.3793 11.7247C24.4529 11.7984 24.5529 11.8398 24.6571 11.8398C24.7613 11.8398 24.8612 11.7984 24.9349 11.7247C25.0085 11.651 25.0499 11.5511 25.0499 11.4469V10.4492C25.0499 10.345 25.0085 10.2451 24.9349 10.1714C24.8612 10.0977 24.7613 10.0563 24.6571 10.0563C24.5529 10.0563 24.4529 10.0977 24.3793 10.1714C24.3056 10.2451 24.2642 10.345 24.2642 10.4492V11.4469C24.2642 11.5511 24.3056 11.651 24.3793 11.7247Z" fill="#2B2A28" stroke="#2B2A28" stroke-width="0.1"/>
<path d="M14.2308 11.2137L14.2308 11.2137C14.1759 11.2687 14.1385 11.3386 14.1233 11.4148C14.1082 11.491 14.1159 11.57 14.1457 11.6418C14.1754 11.7136 14.2257 11.7749 14.2903 11.8181C14.3549 11.8612 14.4309 11.8843 14.5085 11.8843H14.5086C14.6127 11.8843 14.7127 11.8429 14.7863 11.7692C14.7863 11.7692 14.7863 11.7692 14.7863 11.7692L20.8206 5.73493L20.8206 5.73493L20.8212 5.73431C20.8928 5.66022 20.9324 5.56098 20.9315 5.45797C20.9306 5.35497 20.8893 5.25643 20.8164 5.1836C20.7436 5.11076 20.645 5.06944 20.542 5.06855C20.439 5.06765 20.3398 5.10725 20.2657 5.17881L20.2657 5.1788L20.2651 5.17942L14.2308 11.2137Z" fill="#2B2A28" stroke="#2B2A28" stroke-width="0.1"/>
<path d="M20.2651 8.91079C20.3388 8.98447 20.4387 9.02586 20.5429 9.02586C20.6471 9.02586 20.747 8.98447 20.8207 8.91079C20.8944 8.83712 20.9358 8.73719 20.9358 8.633V5.45711C20.9358 5.35292 20.8944 5.253 20.8207 5.17932C20.747 5.10565 20.6471 5.06426 20.5429 5.06426H17.367C17.2628 5.06426 17.1629 5.10565 17.0892 5.17932C17.0156 5.253 16.9742 5.35292 16.9742 5.45711C16.9742 5.56131 17.0156 5.66123 17.0892 5.73491C17.1629 5.80858 17.2628 5.84997 17.367 5.84997H20.1501V8.633C20.1501 8.73719 20.1914 8.83712 20.2651 8.91079Z" fill="#2B2A28" stroke="#2B2A28" stroke-width="0.1"/>
<path d="M5.17929 20.2651L5.17928 20.2651C5.12436 20.32 5.08695 20.39 5.0718 20.4662C5.05665 20.5424 5.06443 20.6214 5.09416 20.6932C5.12389 20.765 5.17423 20.8263 5.23882 20.8695C5.30341 20.9126 5.37934 20.9357 5.45703 20.9357H5.45705C5.56123 20.9357 5.66114 20.8943 5.7348 20.8206C5.7348 20.8206 5.7348 20.8206 5.7348 20.8206L11.7691 14.7863L11.7691 14.7863L11.7697 14.7857C11.8413 14.7116 11.8809 14.6124 11.88 14.5094C11.8791 14.4064 11.8377 14.3078 11.7649 14.235C11.6921 14.1621 11.5935 14.1208 11.4905 14.1199C11.3875 14.119 11.2883 14.1586 11.2142 14.2302L11.2142 14.2302L11.2136 14.2308L5.17929 20.2651Z" fill="#2B2A28" stroke="#2B2A28" stroke-width="0.1"/>
<path d="M5.45687 20.9358H8.63276C8.73695 20.9358 8.83687 20.8944 8.91055 20.8207C8.98422 20.747 9.02561 20.6471 9.02561 20.5429C9.02561 20.4387 8.98422 20.3388 8.91055 20.2651C8.83687 20.1914 8.73695 20.1501 8.63276 20.1501H5.84973V17.367C5.84973 17.3154 5.83957 17.2644 5.81982 17.2167C5.80008 17.169 5.77114 17.1257 5.73466 17.0892C5.69818 17.0528 5.65487 17.0238 5.60721 17.0041C5.55955 16.9843 5.50846 16.9742 5.45687 16.9742C5.40528 16.9742 5.35419 16.9843 5.30653 17.0041C5.25887 17.0238 5.21556 17.0528 5.17908 17.0892C5.1426 17.1257 5.11366 17.169 5.09392 17.2167C5.07418 17.2644 5.06401 17.3154 5.06401 17.367V20.5429C5.06401 20.6471 5.1054 20.747 5.17908 20.8207C5.25275 20.8944 5.35268 20.9358 5.45687 20.9358Z" fill="#2B2A28" stroke="#2B2A28" stroke-width="0.1"/>
</svg>
